<svg width="799" height="827" viewBox="0 0 799 827" fill="none" xmlns="http://www.w3.org/2000/svg">
<path fill-rule="evenodd" clip-rule="evenodd" d="M793.439 549.892C793.615 549.451 792.997 549.187 792.732 549.628C723.699 699.253 585.721 802.915 408.019 802.915C219.281 802.915 42.5498 656.73 42.5498 433.262C42.4615 240.672 190.415 80.812 362.114 80.812C506.625 80.812 606.908 170.182 606.908 233.79C606.908 262.992 588.193 283.636 559.327 283.636C493.03 283.636 467.518 163.3 341.722 163.3C215.927 163.3 105.403 287.077 105.403 433.262C105.403 622.411 253.268 746.188 401.221 746.188C459.043 746.188 491.088 730.837 500.357 725.544C500.71 725.279 500.534 724.75 500.092 724.838C490.911 727.749 461.956 735.778 421.614 735.778C239.674 735.778 166.58 593.033 166.58 500.223C166.58 429.733 210.807 400.531 246.471 400.531C341.634 400.531 328.039 606.884 562.681 606.884C685.122 606.884 799 522.632 799 355.891C799 166.741 622.18 0 408.019 0C193.857 0 0 183.944 0 412.618C0 641.291 190.415 827 408.019 827C599.051 827 742.149 700.047 793.439 549.892Z" fill="white"/>
</svg>
